<svg width="36" height="36" viewBox="0 0 36 36" fill="none" xmlns="http://www.w3.org/2000/svg">
<g clip-path="url(#clip0_15967_5388)">
<path d="M18 0C27.9408 0 36 8.05922 36 18C36 27.9408 27.9408 36 18 36C8.05922 36 0 27.9408 0 18C0 8.05922 8.05922 0 18 0Z" fill="#18181B"/>
<path d="M11.1636 15.4633L13.3398 17.6395L15.5159 15.4633C16.0932 14.886 16.411 14.1133 16.411 13.2871C16.411 12.4609 16.0932 11.6882 15.5159 11.1109C14.9162 10.5112 14.128 10.2109 13.3398 10.2109C12.5516 10.2109 11.7634 10.5112 11.1636 11.1109C9.96337 12.3112 9.96337 14.2637 11.1636 15.4633Z" fill="#F4F4F5"/>
<path d="M6.4764 15.7988C6.22398 16.0533 5.62984 16.7607 5.57921 17.8259C5.51874 19.0739 6.2521 19.9226 6.47781 20.1532L11.1641 24.8382C11.7414 25.4154 12.5141 25.7332 13.3403 25.7332C14.1665 25.7332 14.9392 25.4154 15.5165 24.8382C16.0937 24.2609 16.4116 23.4882 16.4116 22.662C16.4116 21.8358 16.0937 21.0631 15.5165 20.4858C14.7346 19.7046 13.9534 18.9235 13.1723 18.1423C12.3911 17.3611 11.6099 16.58 10.828 15.7988C10.5257 15.4943 9.82117 14.6499 9.78953 13.3751C9.78039 13.0018 9.83101 12.6621 9.91609 12.3584L6.4757 15.7988H6.4764Z" fill="#FAFAFA"/>
<path d="M22.7011 18.3096L20.525 20.4857C19.9477 21.063 19.6299 21.8357 19.6299 22.6619C19.6299 23.4881 19.9477 24.2608 20.525 24.8381C21.1022 25.4154 21.875 25.7332 22.7011 25.7332C23.5273 25.7332 24.3 25.4154 24.8773 24.8381C25.4546 24.2608 25.7724 23.4881 25.7724 22.6619C25.7724 21.8357 25.4546 21.063 24.8773 20.4857L22.7011 18.3096Z" fill="#F4F4F5"/>
<path d="M29.5643 20.1493C29.8167 19.8948 30.4108 19.1868 30.4615 18.1222C30.5219 16.8735 29.7886 16.0255 29.5629 15.7956L24.8758 11.11C24.2761 10.5102 23.4879 10.21 22.6997 10.21C21.9115 10.21 21.1233 10.5102 20.5235 11.11C19.9462 11.6872 19.6284 12.46 19.6284 13.2861C19.6284 14.1123 19.9462 14.885 20.5235 15.4623C21.3251 16.2632 22.1266 17.0647 22.9282 17.8663C23.689 18.6271 24.4497 19.3879 25.2112 20.1486C25.5136 20.4531 26.2181 21.2968 26.2497 22.5723C26.2589 22.9457 26.2083 23.2853 26.1232 23.589L29.5636 20.1486L29.5643 20.1493Z" fill="#FAFAFA"/>
</g>
<defs>
<clipPath id="clip0_15967_5388">
<rect width="36" height="36" fill="white"/>
</clipPath>
</defs>
</svg>
